<svg viewBox="0 0 24 24" fill="none" xmlns="http://www.w3.org/2000/svg"><path d="M10.678 23.136c6.908 0 12.509-5.45 12.509-12.173 0-.852-.108-1.7-.31-2.53-.03-.124.139-.192.19-.075.6 1.368.933 2.878.933 4.466C24 18.996 18.97 24 12.766 24a11.25 11.25 0 0 1-4.344-.866c-.114-.048-.057-.213.065-.192.717.127 1.45.194 2.191.194Z" fill="#fff"/><path d="M22.003 10.944c0 6.044-4.926 10.944-11.002 10.944C4.925 21.888 0 16.988 0 10.944 0 4.9 4.925 0 11.001 0s11.002 4.9 11.002 10.944Z" fill="#fff"/><path d="M8.194 4.885H6.847a.187.187 0 0 0-.195.194v10.913c0 .113.08.194.195.194h1.347a.187.187 0 0 0 .194-.194V5.079a.187.187 0 0 0-.194-.194ZM10.895 10.534l5.426-5.398c.104-.103.046-.251-.092-.251h-1.772a.38.38 0 0 0-.299.113L9.216 9.917a.865.865 0 0 0 0 1.233l4.944 4.92a.38.38 0 0 0 .298.114h1.772c.138 0 .196-.149.092-.251l-5.426-5.399Z" fill="#162230"/></svg>